<svg xmlns="http://www.w3.org/2000/svg" xmlns:xlink="http://www.w3.org/1999/xlink" width="821" zoomAndPan="magnify" viewBox="0 0 615.75 629.999998" height="840" preserveAspectRatio="xMidYMid meet" version="1.2"><defs><clipPath id="706096820e"><path d="M 0 0.128906 L 514 0.128906 L 514 515 L 0 515 Z M 0 0.128906 "/></clipPath><clipPath id="1c6dd3f3b4"><path d="M 383 399 L 614 399 L 614 629.871094 L 383 629.871094 Z M 383 399 "/></clipPath></defs><g id="3831ed26a3"><g clip-rule="nonzero" clip-path="url(#706096820e)"><path style=" stroke:none;fill-rule:nonzero;fill:#b4b4b4;fill-opacity:1;" d="M 256.976562 514.871094 C 252.769531 514.871094 248.566406 514.765625 244.367188 514.558594 C 240.164062 514.355469 235.972656 514.042969 231.789062 513.632812 C 227.601562 513.21875 223.429688 512.707031 219.269531 512.089844 C 215.109375 511.472656 210.964844 510.753906 206.839844 509.933594 C 202.71875 509.109375 198.613281 508.191406 194.535156 507.167969 C 190.457031 506.144531 186.402344 505.023438 182.378906 503.804688 C 178.355469 502.582031 174.363281 501.265625 170.402344 499.847656 C 166.441406 498.429688 162.519531 496.917969 158.636719 495.308594 C 154.75 493.699219 150.90625 491.996094 147.105469 490.195312 C 143.300781 488.398438 139.546875 486.507812 135.839844 484.527344 C 132.128906 482.542969 128.472656 480.472656 124.863281 478.308594 C 121.257812 476.148438 117.703125 473.898438 114.207031 471.5625 C 110.710938 469.226562 107.273438 466.804688 103.894531 464.296875 C 100.515625 461.792969 97.203125 459.207031 93.953125 456.539062 C 90.699219 453.871094 87.515625 451.125 84.402344 448.300781 C 81.285156 445.476562 78.238281 442.578125 75.265625 439.601562 C 72.292969 436.628906 69.394531 433.585938 66.570312 430.46875 C 63.746094 427.351562 61 424.167969 58.332031 420.917969 C 55.664062 417.667969 53.074219 414.351562 50.570312 410.972656 C 48.066406 407.597656 45.644531 404.160156 43.308594 400.664062 C 40.972656 397.164062 38.722656 393.613281 36.558594 390.007812 C 34.398438 386.398438 32.324219 382.742188 30.34375 379.03125 C 28.359375 375.324219 26.46875 371.566406 24.671875 367.765625 C 22.875 363.964844 21.171875 360.121094 19.5625 356.234375 C 17.953125 352.347656 16.4375 348.425781 15.023438 344.464844 C 13.605469 340.507812 12.285156 336.515625 11.066406 332.492188 C 9.84375 328.464844 8.722656 324.414062 7.699219 320.335938 C 6.679688 316.253906 5.757812 312.152344 4.9375 308.027344 C 4.117188 303.902344 3.398438 299.761719 2.78125 295.601562 C 2.164062 291.441406 1.648438 287.269531 1.238281 283.082031 C 0.824219 278.898438 0.515625 274.703125 0.308594 270.503906 C 0.101562 266.304688 0 262.101562 0 257.894531 C 0 253.6875 0.101562 249.484375 0.308594 245.285156 C 0.515625 241.085938 0.824219 236.890625 1.238281 232.707031 C 1.648438 228.519531 2.164062 224.347656 2.78125 220.1875 C 3.398438 216.027344 4.117188 211.886719 4.9375 207.761719 C 5.757812 203.636719 6.679688 199.535156 7.699219 195.453125 C 8.722656 191.375 9.84375 187.324219 11.066406 183.296875 C 12.285156 179.273438 13.605469 175.28125 15.023438 171.320312 C 16.4375 167.363281 17.953125 163.441406 19.5625 159.554688 C 21.171875 155.667969 22.875 151.824219 24.671875 148.023438 C 26.46875 144.222656 28.359375 140.464844 30.34375 136.757812 C 32.324219 133.046875 34.398438 129.390625 36.558594 125.78125 C 38.722656 122.175781 40.972656 118.625 43.308594 115.125 C 45.644531 111.628906 48.066406 108.191406 50.570312 104.816406 C 53.074219 101.4375 55.664062 98.121094 58.332031 94.871094 C 61 91.621094 63.746094 88.4375 66.570312 85.320312 C 69.394531 82.203125 72.292969 79.160156 75.265625 76.1875 C 78.238281 73.210938 81.285156 70.3125 84.402344 67.488281 C 87.515625 64.664062 90.699219 61.917969 93.953125 59.25 C 97.203125 56.582031 100.515625 53.996094 103.894531 51.488281 C 107.273438 48.984375 110.710938 46.5625 114.207031 44.226562 C 117.703125 41.890625 121.257812 39.640625 124.863281 37.480469 C 128.472656 35.316406 132.128906 33.246094 135.835938 31.261719 C 139.546875 29.28125 143.300781 27.390625 147.105469 25.589844 C 150.90625 23.792969 154.75 22.089844 158.636719 20.480469 C 162.519531 18.871094 166.441406 17.359375 170.402344 15.941406 C 174.363281 14.523438 178.355469 13.207031 182.378906 11.984375 C 186.402344 10.765625 190.457031 9.640625 194.535156 8.621094 C 198.613281 7.597656 202.71875 6.675781 206.839844 5.855469 C 210.964844 5.035156 215.109375 4.316406 219.269531 3.699219 C 223.429688 3.082031 227.601562 2.570312 231.789062 2.15625 C 235.972656 1.746094 240.164062 1.433594 244.367188 1.230469 C 248.566406 1.023438 252.769531 0.917969 256.976562 0.917969 C 261.179688 0.917969 265.382812 1.023438 269.585938 1.230469 C 273.785156 1.433594 277.976562 1.746094 282.164062 2.15625 C 286.347656 2.570312 290.519531 3.082031 294.679688 3.699219 C 298.839844 4.316406 302.984375 5.035156 307.109375 5.855469 C 311.234375 6.675781 315.335938 7.597656 319.414062 8.621094 C 323.496094 9.640625 327.546875 10.765625 331.570312 11.984375 C 335.59375 13.207031 339.585938 14.523438 343.546875 15.941406 C 347.507812 17.359375 351.429688 18.871094 355.316406 20.480469 C 359.199219 22.089844 363.042969 23.792969 366.847656 25.589844 C 370.648438 27.390625 374.402344 29.28125 378.113281 31.261719 C 381.820312 33.246094 385.480469 35.316406 389.085938 37.480469 C 392.695312 39.640625 396.246094 41.890625 399.742188 44.226562 C 403.238281 46.5625 406.675781 48.984375 410.054688 51.488281 C 413.433594 53.996094 416.746094 56.582031 420 59.25 C 423.25 61.917969 426.433594 64.664062 429.550781 67.488281 C 432.664062 70.3125 435.710938 73.210938 438.683594 76.1875 C 441.65625 79.160156 444.558594 82.203125 447.382812 85.320312 C 450.207031 88.4375 452.953125 91.621094 455.621094 94.871094 C 458.289062 98.121094 460.875 101.4375 463.378906 104.816406 C 465.882812 108.191406 468.304688 111.628906 470.640625 115.125 C 472.976562 118.625 475.226562 122.175781 477.390625 125.78125 C 479.550781 129.390625 481.625 133.046875 483.605469 136.757812 C 485.589844 140.464844 487.480469 144.222656 489.277344 148.023438 C 491.074219 151.824219 492.78125 155.667969 494.390625 159.554688 C 496 163.441406 497.511719 167.363281 498.929688 171.320312 C 500.34375 175.28125 501.664062 179.273438 502.886719 183.296875 C 504.105469 187.324219 505.226562 191.375 506.25 195.453125 C 507.269531 199.535156 508.191406 203.636719 509.011719 207.761719 C 509.832031 211.886719 510.550781 216.027344 511.167969 220.1875 C 511.785156 224.347656 512.300781 228.519531 512.710938 232.707031 C 513.125 236.890625 513.433594 241.085938 513.640625 245.285156 C 513.847656 249.484375 513.949219 253.6875 513.949219 257.894531 C 513.949219 262.101562 513.847656 266.304688 513.640625 270.503906 C 513.433594 274.703125 513.125 278.898438 512.710938 283.082031 C 512.300781 287.269531 511.785156 291.441406 511.167969 295.601562 C 510.550781 299.761719 509.832031 303.902344 509.011719 308.027344 C 508.191406 312.152344 507.269531 316.253906 506.25 320.335938 C 505.226562 324.414062 504.105469 328.464844 502.886719 332.492188 C 501.664062 336.515625 500.34375 340.507812 498.929688 344.464844 C 497.511719 348.425781 496 352.347656 494.390625 356.234375 C 492.78125 360.121094 491.074219 363.964844 489.277344 367.765625 C 487.480469 371.566406 485.589844 375.324219 483.605469 379.03125 C 481.625 382.742188 479.550781 386.398438 477.390625 390.007812 C 475.226562 393.613281 472.976562 397.164062 470.640625 400.664062 C 468.304688 404.160156 465.882812 407.597656 463.378906 410.972656 C 460.875 414.351562 458.289062 417.667969 455.621094 420.917969 C 452.953125 424.167969 450.207031 427.351562 447.382812 430.46875 C 444.558594 433.585938 441.65625 436.628906 438.683594 439.601562 C 435.710938 442.578125 432.664062 445.476562 429.550781 448.300781 C 426.433594 451.125 423.25 453.871094 420 456.539062 C 416.746094 459.207031 413.433594 461.792969 410.054688 464.296875 C 406.675781 466.804688 403.238281 469.226562 399.742188 471.5625 C 396.246094 473.898438 392.695312 476.148438 389.085938 478.308594 C 385.480469 480.472656 381.820312 482.542969 378.113281 484.527344 C 374.402344 486.507812 370.648438 488.398438 366.847656 490.195312 C 363.042969 491.996094 359.199219 493.699219 355.316406 495.308594 C 351.429688 496.917969 347.507812 498.429688 343.546875 499.847656 C 339.585938 501.265625 335.59375 502.582031 331.570312 503.804688 C 327.546875 505.023438 323.496094 506.144531 319.414062 507.167969 C 315.335938 508.191406 311.234375 509.113281 307.109375 509.933594 C 302.984375 510.753906 298.839844 511.472656 294.679688 512.089844 C 290.519531 512.707031 286.347656 513.21875 282.164062 513.632812 C 277.976562 514.042969 273.785156 514.355469 269.585938 514.558594 C 265.382812 514.765625 261.179688 514.871094 256.976562 514.871094 Z M 256.976562 58.023438 C 253.703125 58.023438 250.433594 58.105469 247.167969 58.265625 C 243.902344 58.425781 240.640625 58.667969 237.382812 58.988281 C 234.128906 59.308594 230.882812 59.707031 227.648438 60.1875 C 224.414062 60.667969 221.191406 61.226562 217.984375 61.867188 C 214.773438 62.503906 211.582031 63.21875 208.410156 64.015625 C 205.238281 64.808594 202.085938 65.683594 198.957031 66.632812 C 195.824219 67.582031 192.722656 68.605469 189.640625 69.707031 C 186.5625 70.808594 183.511719 71.988281 180.488281 73.238281 C 177.464844 74.492188 174.476562 75.816406 171.519531 77.214844 C 168.5625 78.613281 165.640625 80.082031 162.757812 81.625 C 159.871094 83.167969 157.027344 84.777344 154.222656 86.460938 C 151.414062 88.140625 148.652344 89.890625 145.933594 91.707031 C 143.214844 93.527344 140.539062 95.410156 137.914062 97.359375 C 135.285156 99.304688 132.707031 101.316406 130.179688 103.394531 C 127.652344 105.46875 125.175781 107.605469 122.75 109.800781 C 120.328125 111.996094 117.957031 114.253906 115.644531 116.566406 C 113.332031 118.878906 111.078125 121.246094 108.882812 123.671875 C 106.683594 126.09375 104.550781 128.570312 102.472656 131.097656 C 100.398438 133.628906 98.386719 136.203125 96.4375 138.832031 C 94.488281 141.460938 92.605469 144.132812 90.789062 146.851562 C 88.972656 149.574219 87.222656 152.335938 85.542969 155.140625 C 83.859375 157.945312 82.246094 160.792969 80.707031 163.675781 C 79.164062 166.5625 77.695312 169.480469 76.296875 172.4375 C 74.898438 175.394531 73.570312 178.386719 72.320312 181.40625 C 71.066406 184.429688 69.890625 187.480469 68.789062 190.558594 C 67.6875 193.640625 66.660156 196.746094 65.710938 199.875 C 64.761719 203.003906 63.890625 206.15625 63.09375 209.332031 C 62.300781 212.503906 61.585938 215.695312 60.945312 218.902344 C 60.308594 222.109375 59.75 225.332031 59.269531 228.566406 C 58.789062 231.804688 58.386719 235.046875 58.066406 238.304688 C 57.746094 241.558594 57.507812 244.820312 57.347656 248.085938 C 57.1875 251.355469 57.105469 254.625 57.105469 257.894531 C 57.105469 261.164062 57.1875 264.433594 57.347656 267.703125 C 57.507812 270.96875 57.746094 274.230469 58.066406 277.484375 C 58.386719 280.742188 58.789062 283.984375 59.269531 287.222656 C 59.75 290.457031 60.308594 293.679688 60.945312 296.886719 C 61.585938 300.09375 62.300781 303.285156 63.09375 306.457031 C 63.890625 309.632812 64.761719 312.785156 65.710938 315.914062 C 66.660156 319.042969 67.6875 322.148438 68.789062 325.226562 C 69.890625 328.308594 71.066406 331.359375 72.320312 334.382812 C 73.570312 337.402344 74.898438 340.394531 76.296875 343.351562 C 77.695312 346.304688 79.164062 349.226562 80.707031 352.113281 C 82.246094 354.996094 83.859375 357.84375 85.542969 360.648438 C 87.222656 363.453125 88.972656 366.214844 90.789062 368.9375 C 92.605469 371.65625 94.488281 374.328125 96.4375 376.957031 C 98.386719 379.582031 100.398438 382.160156 102.472656 384.691406 C 104.550781 387.21875 106.683594 389.695312 108.882812 392.117188 C 111.078125 394.542969 113.332031 396.910156 115.644531 399.222656 C 117.957031 401.535156 120.328125 403.792969 122.75 405.988281 C 125.175781 408.183594 127.652344 410.320312 130.179688 412.394531 C 132.707031 414.472656 135.285156 416.484375 137.914062 418.429688 C 140.539062 420.378906 143.214844 422.261719 145.933594 424.078125 C 148.652344 425.898438 151.414062 427.648438 154.222656 429.328125 C 157.027344 431.011719 159.871094 432.621094 162.757812 434.164062 C 165.640625 435.707031 168.5625 437.175781 171.519531 438.574219 C 174.476562 439.972656 177.464844 441.296875 180.488281 442.550781 C 183.511719 443.800781 186.5625 444.976562 189.640625 446.082031 C 192.722656 447.183594 195.824219 448.207031 198.957031 449.15625 C 202.085938 450.105469 205.238281 450.980469 208.410156 451.773438 C 211.582031 452.570312 214.773438 453.285156 217.984375 453.921875 C 221.191406 454.5625 224.414062 455.121094 227.648438 455.601562 C 230.882812 456.082031 234.128906 456.480469 237.382812 456.800781 C 240.640625 457.121094 243.902344 457.363281 247.167969 457.523438 C 250.433594 457.683594 253.703125 457.765625 256.976562 457.765625 C 260.246094 457.765625 263.515625 457.683594 266.78125 457.523438 C 270.050781 457.363281 273.308594 457.121094 276.566406 456.800781 C 279.820312 456.480469 283.066406 456.082031 286.300781 455.601562 C 289.539062 455.121094 292.757812 454.5625 295.96875 453.921875 C 299.175781 453.285156 302.367188 452.570312 305.539062 451.773438 C 308.710938 450.980469 311.863281 450.105469 314.992188 449.15625 C 318.125 448.207031 321.230469 447.183594 324.308594 446.082031 C 327.390625 444.976562 330.441406 443.800781 333.460938 442.550781 C 336.484375 441.296875 339.472656 439.972656 342.429688 438.574219 C 345.386719 437.175781 348.308594 435.707031 351.191406 434.164062 C 354.078125 432.621094 356.921875 431.011719 359.730469 429.328125 C 362.535156 427.648438 365.296875 425.898438 368.015625 424.078125 C 370.738281 422.261719 373.410156 420.378906 376.039062 418.429688 C 378.664062 416.484375 381.242188 414.472656 383.769531 412.394531 C 386.300781 410.320312 388.777344 408.183594 391.199219 405.988281 C 393.621094 403.792969 395.992188 401.535156 398.304688 399.222656 C 400.617188 396.910156 402.871094 394.542969 405.070312 392.117188 C 407.265625 389.695312 409.402344 387.21875 411.476562 384.691406 C 413.550781 382.160156 415.5625 379.582031 417.511719 376.957031 C 419.460938 374.328125 421.34375 371.65625 423.160156 368.9375 C 424.976562 366.214844 426.726562 363.453125 428.410156 360.648438 C 430.089844 357.84375 431.703125 354.996094 433.246094 352.113281 C 434.785156 349.226562 436.257812 346.304688 437.65625 343.351562 C 439.054688 340.394531 440.378906 337.402344 441.628906 334.382812 C 442.882812 331.359375 444.058594 328.308594 445.160156 325.226562 C 446.261719 322.148438 447.289062 319.042969 448.238281 315.914062 C 449.1875 312.785156 450.058594 309.632812 450.855469 306.457031 C 451.648438 303.285156 452.367188 300.09375 453.003906 296.886719 C 453.640625 293.679688 454.203125 290.457031 454.679688 287.222656 C 455.160156 283.984375 455.5625 280.742188 455.882812 277.484375 C 456.203125 274.230469 456.445312 270.96875 456.605469 267.703125 C 456.765625 264.433594 456.84375 261.164062 456.84375 257.894531 C 456.84375 254.625 456.765625 251.355469 456.605469 248.085938 C 456.445312 244.820312 456.203125 241.558594 455.882812 238.304688 C 455.5625 235.046875 455.160156 231.804688 454.679688 228.566406 C 454.203125 225.332031 453.640625 222.109375 453.003906 218.902344 C 452.367188 215.695312 451.648438 212.503906 450.855469 209.332031 C 450.058594 206.15625 449.1875 203.003906 448.238281 199.875 C 447.289062 196.746094 446.261719 193.640625 445.160156 190.558594 C 444.058594 187.480469 442.882812 184.429688 441.628906 181.40625 C 440.378906 178.386719 439.054688 175.394531 437.65625 172.4375 C 436.257812 169.480469 434.785156 166.5625 433.246094 163.675781 C 431.703125 160.792969 430.089844 157.945312 428.410156 155.140625 C 426.726562 152.335938 424.976562 149.574219 423.160156 146.851562 C 421.34375 144.132812 419.460938 141.460938 417.511719 138.832031 C 415.5625 136.203125 413.550781 133.628906 411.476562 131.097656 C 409.402344 128.570312 407.265625 126.09375 405.070312 123.671875 C 402.871094 121.246094 400.617188 118.878906 398.304688 116.566406 C 395.992188 114.253906 393.621094 111.996094 391.199219 109.800781 C 388.777344 107.605469 386.300781 105.46875 383.769531 103.394531 C 381.242188 101.316406 378.664062 99.304688 376.039062 97.359375 C 373.410156 95.410156 370.738281 93.527344 368.015625 91.707031 C 365.296875 89.890625 362.535156 88.140625 359.730469 86.460938 C 356.921875 84.777344 354.078125 83.167969 351.191406 81.625 C 348.308594 80.082031 345.386719 78.613281 342.429688 77.214844 C 339.472656 75.816406 336.484375 74.492188 333.460938 73.238281 C 330.441406 71.988281 327.390625 70.808594 324.308594 69.707031 C 321.230469 68.605469 318.125 67.582031 314.992188 66.632812 C 311.863281 65.683594 308.710938 64.808594 305.539062 64.015625 C 302.367188 63.21875 299.175781 62.503906 295.96875 61.867188 C 292.757812 61.226562 289.539062 60.667969 286.300781 60.1875 C 283.066406 59.707031 279.820312 59.308594 276.566406 58.988281 C 273.308594 58.667969 270.050781 58.425781 266.78125 58.265625 C 263.515625 58.105469 260.246094 58.023438 256.976562 58.023438 Z M 256.976562 58.023438 "/></g><g clip-rule="nonzero" clip-path="url(#1c6dd3f3b4)"><path style=" stroke:none;fill-rule:nonzero;fill:#b4b4b4;fill-opacity:1;" d="M 584.332031 629.082031 C 582.460938 629.074219 580.609375 628.882812 578.773438 628.511719 C 576.9375 628.136719 575.160156 627.589844 573.433594 626.867188 C 571.703125 626.144531 570.066406 625.261719 568.511719 624.214844 C 566.960938 623.171875 565.523438 621.984375 564.203125 620.65625 L 391.457031 447.914062 C 390.796875 447.25 390.171875 446.558594 389.578125 445.835938 C 388.984375 445.113281 388.429688 444.363281 387.910156 443.582031 C 387.390625 442.804688 386.910156 442.003906 386.472656 441.179688 C 386.03125 440.355469 385.632812 439.507812 385.273438 438.644531 C 384.917969 437.78125 384.601562 436.902344 384.332031 436.007812 C 384.0625 435.113281 383.835938 434.207031 383.652344 433.289062 C 383.472656 432.371094 383.335938 431.445312 383.242188 430.515625 C 383.152344 429.585938 383.105469 428.652344 383.105469 427.714844 C 383.105469 426.78125 383.152344 425.847656 383.246094 424.917969 C 383.335938 423.988281 383.472656 423.0625 383.65625 422.144531 C 383.839844 421.230469 384.066406 420.324219 384.339844 419.429688 C 384.609375 418.535156 384.925781 417.652344 385.285156 416.789062 C 385.640625 415.925781 386.039062 415.082031 386.480469 414.257812 C 386.921875 413.433594 387.402344 412.632812 387.921875 411.855469 C 388.441406 411.074219 389 410.324219 389.59375 409.601562 C 390.1875 408.878906 390.8125 408.1875 391.472656 407.527344 C 392.136719 406.867188 392.828125 406.238281 393.550781 405.644531 C 394.273438 405.050781 395.023438 404.496094 395.800781 403.976562 C 396.578125 403.457031 397.378906 402.976562 398.203125 402.535156 C 399.03125 402.09375 399.875 401.695312 400.738281 401.335938 C 401.601562 400.976562 402.480469 400.664062 403.375 400.390625 C 404.269531 400.121094 405.175781 399.890625 406.09375 399.710938 C 407.011719 399.527344 407.933594 399.390625 408.867188 399.296875 C 409.796875 399.207031 410.730469 399.160156 411.664062 399.160156 C 412.601562 399.160156 413.53125 399.203125 414.464844 399.296875 C 415.394531 399.386719 416.316406 399.523438 417.234375 399.707031 C 418.152344 399.886719 419.058594 400.113281 419.953125 400.386719 C 420.847656 400.65625 421.730469 400.96875 422.59375 401.328125 C 423.457031 401.683594 424.300781 402.082031 425.125 402.523438 C 425.953125 402.964844 426.753906 403.445312 427.53125 403.964844 C 428.308594 404.480469 429.058594 405.039062 429.785156 405.632812 C 430.507812 406.222656 431.199219 406.851562 431.859375 407.511719 L 604.605469 580.253906 C 605.605469 581.25 606.527344 582.308594 607.371094 583.4375 C 608.21875 584.570312 608.972656 585.753906 609.640625 586.996094 C 610.308594 588.238281 610.882812 589.523438 611.359375 590.847656 C 611.839844 592.175781 612.214844 593.53125 612.492188 594.914062 C 612.769531 596.292969 612.945312 597.691406 613.015625 599.097656 C 613.085938 600.507812 613.054688 601.914062 612.914062 603.316406 C 612.777344 604.71875 612.539062 606.105469 612.195312 607.472656 C 611.851562 608.839844 611.410156 610.175781 610.867188 611.476562 C 610.328125 612.78125 609.695312 614.035156 608.96875 615.242188 C 608.242188 616.453125 607.429688 617.601562 606.53125 618.6875 C 605.636719 619.777344 604.664062 620.792969 603.617188 621.738281 C 602.570312 622.679688 601.457031 623.542969 600.28125 624.320312 C 599.109375 625.101562 597.882812 625.789062 596.605469 626.386719 C 595.328125 626.984375 594.011719 627.484375 592.664062 627.890625 C 591.3125 628.292969 589.9375 628.59375 588.542969 628.792969 C 587.144531 628.992188 585.742188 629.089844 584.332031 629.082031 Z M 584.332031 629.082031 "/></g><g style="fill:#ffffff;fill-opacity:1;"><g transform="translate(109.408151, 254.403182)"><path style="stroke:none" d="M 2.25 0 L 2.25 -18.109375 L 4.15625 -18.109375 L 4.15625 -7.53125 L 4.46875 -7.53125 L 9.28125 -12.921875 L 11.28125 -12.921875 L 11.28125 -12.640625 L 6.15625 -6.84375 L 11.765625 -0.296875 L 11.765625 0 L 9.640625 0 L 4.46875 -5.96875 L 4.15625 -5.96875 L 4.15625 0 Z M 2.25 0 "/></g><g transform="translate(121.426708, 254.403182)"><path style="stroke:none" d="M 3.203125 -15.40625 C 2.796875 -15.40625 2.46875 -15.53125 2.21875 -15.78125 C 1.96875 -16.039062 1.84375 -16.367188 1.84375 -16.765625 C 1.84375 -17.148438 1.96875 -17.46875 2.21875 -17.71875 C 2.46875 -17.976562 2.796875 -18.109375 3.203125 -18.109375 C 3.609375 -18.109375 3.9375 -17.976562 4.1875 -17.71875 C 4.445312 -17.46875 4.578125 -17.148438 4.578125 -16.765625 C 4.578125 -16.367188 4.445312 -16.039062 4.1875 -15.78125 C 3.9375 -15.53125 3.609375 -15.40625 3.203125 -15.40625 Z M 0.625 5.484375 C 0.21875 5.484375 -0.132812 5.453125 -0.4375 5.390625 C -0.75 5.335938 -1.050781 5.253906 -1.34375 5.140625 L -1.046875 3.671875 L -0.828125 3.59375 C -0.441406 3.738281 -0.046875 3.8125 0.359375 3.8125 C 0.972656 3.8125 1.441406 3.609375 1.765625 3.203125 C 2.085938 2.804688 2.25 2.234375 2.25 1.484375 L 2.25 -12.921875 L 4.15625 -12.921875 L 4.15625 1.421875 C 4.15625 2.710938 3.847656 3.710938 3.234375 4.421875 C 2.617188 5.128906 1.75 5.484375 0.625 5.484375 Z M 0.625 5.484375 "/></g><g transform="translate(127.834262, 254.403182)"><path style="stroke:none" d="M 6.703125 0.25 C 5.660156 0.25 4.742188 0.00390625 3.953125 -0.484375 C 3.160156 -0.984375 2.539062 -1.734375 2.09375 -2.734375 C 1.644531 -3.734375 1.421875 -4.972656 1.421875 -6.453125 C 1.421875 -7.929688 1.65625 -9.171875 2.125 -10.171875 C 2.59375 -11.171875 3.238281 -11.914062 4.0625 -12.40625 C 4.882812 -12.90625 5.835938 -13.15625 6.921875 -13.15625 C 7.773438 -13.15625 8.546875 -12.992188 9.234375 -12.671875 C 9.921875 -12.347656 10.515625 -11.816406 11.015625 -11.078125 L 11.25 -11.125 L 11.25 -18.109375 L 13.15625 -18.109375 L 13.15625 0 L 11.25 0 L 11.25 -1.890625 L 11.015625 -1.9375 C 10.585938 -1.289062 10.007812 -0.765625 9.28125 -0.359375 C 8.5625 0.046875 7.703125 0.25 6.703125 0.25 Z M 7.296875 -1.46875 C 8.492188 -1.46875 9.453125 -1.878906 10.171875 -2.703125 C 10.890625 -3.523438 11.25 -4.773438 11.25 -6.453125 C 11.25 -8.140625 10.890625 -9.394531 10.171875 -10.21875 C 9.453125 -11.039062 8.492188 -11.453125 7.296875 -11.453125 C 6.054688 -11.453125 5.097656 -11.050781 4.421875 -10.25 C 3.753906 -9.445312 3.421875 -8.179688 3.421875 -6.453125 C 3.421875 -3.128906 4.710938 -1.46875 7.296875 -1.46875 Z M 7.296875 -1.46875 "/></g><g transform="translate(143.261592, 254.403182)"><path style="stroke:none" d="M 8.578125 0.25 C 7.617188 0.25 6.785156 0.0664062 6.078125 -0.296875 C 5.378906 -0.671875 4.820312 -1.164062 4.40625 -1.78125 L 4.15625 -1.734375 L 4.15625 0 L 2.25 0 L 2.25 -18.109375 L 4.15625 -18.109375 L 4.15625 -10.984375 L 4.40625 -10.9375 C 5.382812 -12.414062 6.8125 -13.15625 8.6875 -13.15625 C 9.75 -13.15625 10.675781 -12.910156 11.46875 -12.421875 C 12.269531 -11.929688 12.890625 -11.179688 13.328125 -10.171875 C 13.773438 -9.171875 14 -7.929688 14 -6.453125 C 14 -4.984375 13.765625 -3.742188 13.296875 -2.734375 C 12.828125 -1.734375 12.1875 -0.984375 11.375 -0.484375 C 10.570312 0.00390625 9.640625 0.25 8.578125 0.25 Z M 8.125 -1.46875 C 10.707031 -1.46875 12 -3.128906 12 -6.453125 C 12 -8.179688 11.660156 -9.445312 10.984375 -10.25 C 10.316406 -11.050781 9.363281 -11.453125 8.125 -11.453125 C 6.914062 -11.453125 5.953125 -11.039062 5.234375 -10.21875 C 4.515625 -9.394531 4.15625 -8.140625 4.15625 -6.453125 C 4.15625 -4.773438 4.515625 -3.523438 5.234375 -2.703125 C 5.953125 -1.878906 6.914062 -1.46875 8.125 -1.46875 Z M 8.125 -1.46875 "/></g></g><g style="fill:#ffffff;fill-opacity:1;"><g transform="translate(158.583496, 254.403182)"><path style="stroke:none" d="M 6.65625 5.484375 C 4.613281 5.484375 3.125 5.140625 2.1875 4.453125 C 1.25 3.773438 0.78125 2.875 0.78125 1.75 C 0.78125 1.03125 1 0.453125 1.4375 0.015625 C 1.875 -0.410156 2.507812 -0.71875 3.34375 -0.90625 L 3.34375 -1.140625 C 2.945312 -1.367188 2.648438 -1.632812 2.453125 -1.9375 C 2.253906 -2.25 2.15625 -2.613281 2.15625 -3.03125 C 2.15625 -3.53125 2.3125 -3.9375 2.625 -4.25 C 2.945312 -4.5625 3.421875 -4.800781 4.046875 -4.96875 L 4.046875 -5.21875 C 2.640625 -5.957031 1.9375 -7.160156 1.9375 -8.828125 C 1.9375 -9.671875 2.125 -10.421875 2.5 -11.078125 C 2.882812 -11.734375 3.429688 -12.242188 4.140625 -12.609375 C 4.859375 -12.972656 5.6875 -13.15625 6.625 -13.15625 C 7.707031 -13.15625 8.613281 -12.921875 9.34375 -12.453125 C 9.613281 -12.753906 9.816406 -13.078125 9.953125 -13.421875 C 10.097656 -13.773438 10.1875 -14.171875 10.21875 -14.609375 L 10.46875 -14.75 L 12.03125 -14.375 C 11.957031 -13.71875 11.757812 -13.160156 11.4375 -12.703125 C 11.125 -12.253906 10.679688 -11.882812 10.109375 -11.59375 L 10.109375 -11.34375 C 10.523438 -11.019531 10.832031 -10.632812 11.03125 -10.1875 C 11.226562 -9.75 11.328125 -9.238281 11.328125 -8.65625 C 11.328125 -7.84375 11.128906 -7.113281 10.734375 -6.46875 C 10.347656 -5.820312 9.796875 -5.3125 9.078125 -4.9375 C 8.367188 -4.5625 7.550781 -4.375 6.625 -4.375 C 6.519531 -4.375 6.328125 -4.382812 6.046875 -4.40625 C 5.734375 -4.414062 5.503906 -4.421875 5.359375 -4.421875 C 4.953125 -4.421875 4.625 -4.316406 4.375 -4.109375 C 4.132812 -3.898438 4.015625 -3.628906 4.015625 -3.296875 C 4.015625 -2.890625 4.144531 -2.59375 4.40625 -2.40625 C 4.664062 -2.21875 5.097656 -2.109375 5.703125 -2.078125 L 8.765625 -1.984375 C 10.078125 -1.929688 11.050781 -1.617188 11.6875 -1.046875 C 12.320312 -0.484375 12.640625 0.3125 12.640625 1.34375 C 12.640625 2.113281 12.429688 2.8125 12.015625 3.4375 C 11.609375 4.0625 10.957031 4.554688 10.0625 4.921875 C 9.164062 5.296875 8.03125 5.484375 6.65625 5.484375 Z M 6.625 -6.015625 C 7.539062 -6.015625 8.25 -6.253906 8.75 -6.734375 C 9.25 -7.210938 9.5 -7.878906 9.5 -8.734375 C 9.5 -9.628906 9.25 -10.316406 8.75 -10.796875 C 8.257812 -11.285156 7.550781 -11.53125 6.625 -11.53125 C 5.707031 -11.53125 5.003906 -11.285156 4.515625 -10.796875 C 4.035156 -10.316406 3.796875 -9.628906 3.796875 -8.734375 C 3.796875 -7.867188 4.035156 -7.195312 4.515625 -6.71875 C 5.003906 -6.25 5.707031 -6.015625 6.625 -6.015625 Z M 6.65625 3.84375 C 7.601562 3.84375 8.378906 3.734375 8.984375 3.515625 C 9.585938 3.304688 10.019531 3.03125 10.28125 2.6875 C 10.550781 2.34375 10.6875 1.953125 10.6875 1.515625 C 10.6875 1.140625 10.613281 0.832031 10.46875 0.59375 C 10.332031 0.363281 10.101562 0.1875 9.78125 0.0625 C 9.457031 -0.0507812 9.019531 -0.125 8.46875 -0.15625 L 5.578125 -0.296875 L 5.171875 -0.296875 C 3.546875 -0.265625 2.734375 0.363281 2.734375 1.59375 C 2.734375 3.09375 4.039062 3.84375 6.65625 3.84375 Z M 6.65625 3.84375 "/></g><g transform="translate(171.820308, 254.403182)"><path style="stroke:none" d="M 2.25 0 L 2.25 -18.109375 L 4.15625 -18.109375 L 4.15625 -7.53125 L 4.46875 -7.53125 L 9.28125 -12.921875 L 11.28125 -12.921875 L 11.28125 -12.640625 L 6.15625 -6.84375 L 11.765625 -0.296875 L 11.765625 0 L 9.640625 0 L 4.46875 -5.96875 L 4.15625 -5.96875 L 4.15625 0 Z M 2.25 0 "/></g></g><g style="fill:#ffffff;fill-opacity:1;"><g transform="translate(183.639728, 254.403182)"><path style="stroke:none" d="M 6.703125 0.25 C 5.660156 0.25 4.742188 0.00390625 3.953125 -0.484375 C 3.160156 -0.984375 2.539062 -1.734375 2.09375 -2.734375 C 1.644531 -3.734375 1.421875 -4.972656 1.421875 -6.453125 C 1.421875 -7.929688 1.65625 -9.171875 2.125 -10.171875 C 2.59375 -11.171875 3.238281 -11.914062 4.0625 -12.40625 C 4.882812 -12.90625 5.835938 -13.15625 6.921875 -13.15625 C 7.773438 -13.15625 8.546875 -12.992188 9.234375 -12.671875 C 9.921875 -12.347656 10.515625 -11.816406 11.015625 -11.078125 L 11.25 -11.125 L 11.25 -18.109375 L 13.15625 -18.109375 L 13.15625 0 L 11.25 0 L 11.25 -1.890625 L 11.015625 -1.9375 C 10.585938 -1.289062 10.007812 -0.765625 9.28125 -0.359375 C 8.5625 0.046875 7.703125 0.25 6.703125 0.25 Z M 7.296875 -1.46875 C 8.492188 -1.46875 9.453125 -1.878906 10.171875 -2.703125 C 10.890625 -3.523438 11.25 -4.773438 11.25 -6.453125 C 11.25 -8.140625 10.890625 -9.394531 10.171875 -10.21875 C 9.453125 -11.039062 8.492188 -11.453125 7.296875 -11.453125 C 6.054688 -11.453125 5.097656 -11.050781 4.421875 -10.25 C 3.753906 -9.445312 3.421875 -8.179688 3.421875 -6.453125 C 3.421875 -3.128906 4.710938 -1.46875 7.296875 -1.46875 Z M 7.296875 -1.46875 "/></g><g transform="translate(199.067057, 254.403182)"><path style="stroke:none" d="M 5.890625 0.25 C 5.078125 0.25 4.320312 0.144531 3.625 -0.0625 C 2.9375 -0.28125 2.351562 -0.578125 1.875 -0.953125 C 1.40625 -1.328125 1.070312 -1.75 0.875 -2.21875 L 2 -3.390625 L 2.25 -3.390625 C 2.664062 -2.753906 3.171875 -2.273438 3.765625 -1.953125 C 4.359375 -1.628906 5.066406 -1.46875 5.890625 -1.46875 C 6.835938 -1.46875 7.5625 -1.648438 8.0625 -2.015625 C 8.5625 -2.390625 8.8125 -2.910156 8.8125 -3.578125 C 8.8125 -4.078125 8.660156 -4.492188 8.359375 -4.828125 C 8.054688 -5.160156 7.566406 -5.410156 6.890625 -5.578125 L 4.71875 -6.109375 C 3.550781 -6.390625 2.703125 -6.832031 2.171875 -7.4375 C 1.640625 -8.050781 1.375 -8.804688 1.375 -9.703125 C 1.375 -10.410156 1.550781 -11.019531 1.90625 -11.53125 C 2.269531 -12.050781 2.785156 -12.453125 3.453125 -12.734375 C 4.128906 -13.015625 4.9375 -13.15625 5.875 -13.15625 C 7.050781 -13.15625 7.984375 -12.988281 8.671875 -12.65625 C 9.359375 -12.332031 9.890625 -11.875 10.265625 -11.28125 L 9.1875 -10.21875 L 8.953125 -10.21875 C 8.546875 -10.695312 8.097656 -11.039062 7.609375 -11.25 C 7.117188 -11.46875 6.539062 -11.578125 5.875 -11.578125 C 5.019531 -11.578125 4.363281 -11.421875 3.90625 -11.109375 C 3.457031 -10.804688 3.234375 -10.367188 3.234375 -9.796875 C 3.234375 -9.265625 3.390625 -8.835938 3.703125 -8.515625 C 4.023438 -8.203125 4.585938 -7.945312 5.390625 -7.75 L 7.53125 -7.234375 C 8.65625 -6.972656 9.46875 -6.53125 9.96875 -5.90625 C 10.46875 -5.289062 10.71875 -4.519531 10.71875 -3.59375 C 10.71875 -2.832031 10.535156 -2.160156 10.171875 -1.578125 C 9.816406 -1.003906 9.273438 -0.554688 8.546875 -0.234375 C 7.816406 0.0859375 6.929688 0.25 5.890625 0.25 Z M 5.890625 0.25 "/></g><g transform="translate(211.015331, 254.403182)"><path style="stroke:none" d="M 2.25 0 L 2.25 -18.109375 L 4.15625 -18.109375 L 4.15625 -7.53125 L 4.46875 -7.53125 L 9.28125 -12.921875 L 11.28125 -12.921875 L 11.28125 -12.640625 L 6.15625 -6.84375 L 11.765625 -0.296875 L 11.765625 0 L 9.640625 0 L 4.46875 -5.96875 L 4.15625 -5.96875 L 4.15625 0 Z M 2.25 0 "/></g></g><g style="fill:#ffffff;fill-opacity:1;"><g transform="translate(222.83475, 254.403182)"><path style="stroke:none" d="M 12.3125 -6.015625 L 3.4375 -6.015625 C 3.488281 -4.453125 3.863281 -3.300781 4.5625 -2.5625 C 5.257812 -1.832031 6.21875 -1.46875 7.4375 -1.46875 C 8.351562 -1.46875 9.09375 -1.628906 9.65625 -1.953125 C 10.21875 -2.285156 10.660156 -2.800781 10.984375 -3.5 L 11.234375 -3.5 L 12.46875 -2.765625 C 12.09375 -1.828125 11.492188 -1.085938 10.671875 -0.546875 C 9.847656 -0.015625 8.769531 0.25 7.4375 0.25 C 6.1875 0.25 5.113281 0.00390625 4.21875 -0.484375 C 3.320312 -0.984375 2.628906 -1.734375 2.140625 -2.734375 C 1.660156 -3.734375 1.421875 -4.972656 1.421875 -6.453125 C 1.421875 -7.921875 1.675781 -9.15625 2.1875 -10.15625 C 2.695312 -11.164062 3.394531 -11.914062 4.28125 -12.40625 C 5.164062 -12.90625 6.175781 -13.15625 7.3125 -13.15625 C 8.96875 -13.15625 10.257812 -12.6875 11.1875 -11.75 C 12.125 -10.820312 12.59375 -9.441406 12.59375 -7.609375 C 12.59375 -6.890625 12.578125 -6.40625 12.546875 -6.15625 Z M 10.71875 -7.609375 C 10.6875 -8.984375 10.378906 -9.984375 9.796875 -10.609375 C 9.222656 -11.234375 8.394531 -11.546875 7.3125 -11.546875 C 6.1875 -11.546875 5.300781 -11.226562 4.65625 -10.59375 C 4.007812 -9.96875 3.617188 -8.972656 3.484375 -7.609375 Z M 10.71875 -7.609375 "/></g><g transform="translate(236.610406, 254.403182)"><path style="stroke:none" d="M 8.578125 0.25 C 7.617188 0.25 6.785156 0.0664062 6.078125 -0.296875 C 5.378906 -0.671875 4.820312 -1.164062 4.40625 -1.78125 L 4.15625 -1.734375 L 4.15625 0 L 2.25 0 L 2.25 -18.109375 L 4.15625 -18.109375 L 4.15625 -10.984375 L 4.40625 -10.9375 C 5.382812 -12.414062 6.8125 -13.15625 8.6875 -13.15625 C 9.75 -13.15625 10.675781 -12.910156 11.46875 -12.421875 C 12.269531 -11.929688 12.890625 -11.179688 13.328125 -10.171875 C 13.773438 -9.171875 14 -7.929688 14 -6.453125 C 14 -4.984375 13.765625 -3.742188 13.296875 -2.734375 C 12.828125 -1.734375 12.1875 -0.984375 11.375 -0.484375 C 10.570312 0.00390625 9.640625 0.25 8.578125 0.25 Z M 8.125 -1.46875 C 10.707031 -1.46875 12 -3.128906 12 -6.453125 C 12 -8.179688 11.660156 -9.445312 10.984375 -10.25 C 10.316406 -11.050781 9.363281 -11.453125 8.125 -11.453125 C 6.914062 -11.453125 5.953125 -11.039062 5.234375 -10.21875 C 4.515625 -9.394531 4.15625 -8.140625 4.15625 -6.453125 C 4.15625 -4.773438 4.515625 -3.523438 5.234375 -2.703125 C 5.953125 -1.878906 6.914062 -1.46875 8.125 -1.46875 Z M 8.125 -1.46875 "/></g></g><g style="fill:#ffffff;fill-opacity:1;"><g transform="translate(251.93231, 254.403182)"><path style="stroke:none" d="M 6.65625 5.484375 C 4.613281 5.484375 3.125 5.140625 2.1875 4.453125 C 1.25 3.773438 0.78125 2.875 0.78125 1.75 C 0.78125 1.03125 1 0.453125 1.4375 0.015625 C 1.875 -0.410156 2.507812 -0.71875 3.34375 -0.90625 L 3.34375 -1.140625 C 2.945312 -1.367188 2.648438 -1.632812 2.453125 -1.9375 C 2.253906 -2.25 2.15625 -2.613281 2.15625 -3.03125 C 2.15625 -3.53125 2.3125 -3.9375 2.625 -4.25 C 2.945312 -4.5625 3.421875 -4.800781 4.046875 -4.96875 L 4.046875 -5.21875 C 2.640625 -5.957031 1.9375 -7.160156 1.9375 -8.828125 C 1.9375 -9.671875 2.125 -10.421875 2.5 -11.078125 C 2.882812 -11.734375 3.429688 -12.242188 4.140625 -12.609375 C 4.859375 -12.972656 5.6875 -13.15625 6.625 -13.15625 C 7.707031 -13.15625 8.613281 -12.921875 9.34375 -12.453125 C 9.613281 -12.753906 9.816406 -13.078125 9.953125 -13.421875 C 10.097656 -13.773438 10.1875 -14.171875 10.21875 -14.609375 L 10.46875 -14.75 L 12.03125 -14.375 C 11.957031 -13.71875 11.757812 -13.160156 11.4375 -12.703125 C 11.125 -12.253906 10.679688 -11.882812 10.109375 -11.59375 L 10.109375 -11.34375 C 10.523438 -11.019531 10.832031 -10.632812 11.03125 -10.1875 C 11.226562 -9.75 11.328125 -9.238281 11.328125 -8.65625 C 11.328125 -7.84375 11.128906 -7.113281 10.734375 -6.46875 C 10.347656 -5.820312 9.796875 -5.3125 9.078125 -4.9375 C 8.367188 -4.5625 7.550781 -4.375 6.625 -4.375 C 6.519531 -4.375 6.328125 -4.382812 6.046875 -4.40625 C 5.734375 -4.414062 5.503906 -4.421875 5.359375 -4.421875 C 4.953125 -4.421875 4.625 -4.316406 4.375 -4.109375 C 4.132812 -3.898438 4.015625 -3.628906 4.015625 -3.296875 C 4.015625 -2.890625 4.144531 -2.59375 4.40625 -2.40625 C 4.664062 -2.21875 5.097656 -2.109375 5.703125 -2.078125 L 8.765625 -1.984375 C 10.078125 -1.929688 11.050781 -1.617188 11.6875 -1.046875 C 12.320312 -0.484375 12.640625 0.3125 12.640625 1.34375 C 12.640625 2.113281 12.429688 2.8125 12.015625 3.4375 C 11.609375 4.0625 10.957031 4.554688 10.0625 4.921875 C 9.164062 5.296875 8.03125 5.484375 6.65625 5.484375 Z M 6.625 -6.015625 C 7.539062 -6.015625 8.25 -6.253906 8.75 -6.734375 C 9.25 -7.210938 9.5 -7.878906 9.5 -8.734375 C 9.5 -9.628906 9.25 -10.316406 8.75 -10.796875 C 8.257812 -11.285156 7.550781 -11.53125 6.625 -11.53125 C 5.707031 -11.53125 5.003906 -11.285156 4.515625 -10.796875 C 4.035156 -10.316406 3.796875 -9.628906 3.796875 -8.734375 C 3.796875 -7.867188 4.035156 -7.195312 4.515625 -6.71875 C 5.003906 -6.25 5.707031 -6.015625 6.625 -6.015625 Z M 6.65625 3.84375 C 7.601562 3.84375 8.378906 3.734375 8.984375 3.515625 C 9.585938 3.304688 10.019531 3.03125 10.28125 2.6875 C 10.550781 2.34375 10.6875 1.953125 10.6875 1.515625 C 10.6875 1.140625 10.613281 0.832031 10.46875 0.59375 C 10.332031 0.363281 10.101562 0.1875 9.78125 0.0625 C 9.457031 -0.0507812 9.019531 -0.125 8.46875 -0.15625 L 5.578125 -0.296875 L 5.171875 -0.296875 C 3.546875 -0.265625 2.734375 0.363281 2.734375 1.59375 C 2.734375 3.09375 4.039062 3.84375 6.65625 3.84375 Z M 6.65625 3.84375 "/></g><g transform="translate(265.169123, 254.403182)"><path style="stroke:none" d="M 2.25 0 L 2.25 -18.109375 L 4.15625 -18.109375 L 4.15625 -7.53125 L 4.46875 -7.53125 L 9.28125 -12.921875 L 11.28125 -12.921875 L 11.28125 -12.640625 L 6.15625 -6.84375 L 11.765625 -0.296875 L 11.765625 0 L 9.640625 0 L 4.46875 -5.96875 L 4.15625 -5.96875 L 4.15625 0 Z M 2.25 0 "/></g><g transform="translate(277.18768, 254.403182)"><path style="stroke:none" d="M 5.890625 0.25 C 5.078125 0.25 4.320312 0.144531 3.625 -0.0625 C 2.9375 -0.28125 2.351562 -0.578125 1.875 -0.953125 C 1.40625 -1.328125 1.070312 -1.75 0.875 -2.21875 L 2 -3.390625 L 2.25 -3.390625 C 2.664062 -2.753906 3.171875 -2.273438 3.765625 -1.953125 C 4.359375 -1.628906 5.066406 -1.46875 5.890625 -1.46875 C 6.835938 -1.46875 7.5625 -1.648438 8.0625 -2.015625 C 8.5625 -2.390625 8.8125 -2.910156 8.8125 -3.578125 C 8.8125 -4.078125 8.660156 -4.492188 8.359375 -4.828125 C 8.054688 -5.160156 7.566406 -5.410156 6.890625 -5.578125 L 4.71875 -6.109375 C 3.550781 -6.390625 2.703125 -6.832031 2.171875 -7.4375 C 1.640625 -8.050781 1.375 -8.804688 1.375 -9.703125 C 1.375 -10.410156 1.550781 -11.019531 1.90625 -11.53125 C 2.269531 -12.050781 2.785156 -12.453125 3.453125 -12.734375 C 4.128906 -13.015625 4.9375 -13.15625 5.875 -13.15625 C 7.050781 -13.15625 7.984375 -12.988281 8.671875 -12.65625 C 9.359375 -12.332031 9.890625 -11.875 10.265625 -11.28125 L 9.1875 -10.21875 L 8.953125 -10.21875 C 8.546875 -10.695312 8.097656 -11.039062 7.609375 -11.25 C 7.117188 -11.46875 6.539062 -11.578125 5.875 -11.578125 C 5.019531 -11.578125 4.363281 -11.421875 3.90625 -11.109375 C 3.457031 -10.804688 3.234375 -10.367188 3.234375 -9.796875 C 3.234375 -9.265625 3.390625 -8.835938 3.703125 -8.515625 C 4.023438 -8.203125 4.585938 -7.945312 5.390625 -7.75 L 7.53125 -7.234375 C 8.65625 -6.972656 9.46875 -6.53125 9.96875 -5.90625 C 10.46875 -5.289062 10.71875 -4.519531 10.71875 -3.59375 C 10.71875 -2.832031 10.535156 -2.160156 10.171875 -1.578125 C 9.816406 -1.003906 9.273438 -0.554688 8.546875 -0.234375 C 7.816406 0.0859375 6.929688 0.25 5.890625 0.25 Z M 5.890625 0.25 "/></g><g transform="translate(289.135953, 254.403182)"><path style="stroke:none" d="M 8.578125 0.25 C 7.617188 0.25 6.785156 0.0664062 6.078125 -0.296875 C 5.378906 -0.671875 4.820312 -1.164062 4.40625 -1.78125 L 4.15625 -1.734375 L 4.15625 0 L 2.25 0 L 2.25 -18.109375 L 4.15625 -18.109375 L 4.15625 -10.984375 L 4.40625 -10.9375 C 5.382812 -12.414062 6.8125 -13.15625 8.6875 -13.15625 C 9.75 -13.15625 10.675781 -12.910156 11.46875 -12.421875 C 12.269531 -11.929688 12.890625 -11.179688 13.328125 -10.171875 C 13.773438 -9.171875 14 -7.929688 14 -6.453125 C 14 -4.984375 13.765625 -3.742188 13.296875 -2.734375 C 12.828125 -1.734375 12.1875 -0.984375 11.375 -0.484375 C 10.570312 0.00390625 9.640625 0.25 8.578125 0.25 Z M 8.125 -1.46875 C 10.707031 -1.46875 12 -3.128906 12 -6.453125 C 12 -8.179688 11.660156 -9.445312 10.984375 -10.25 C 10.316406 -11.050781 9.363281 -11.453125 8.125 -11.453125 C 6.914062 -11.453125 5.953125 -11.039062 5.234375 -10.21875 C 4.515625 -9.394531 4.15625 -8.140625 4.15625 -6.453125 C 4.15625 -4.773438 4.515625 -3.523438 5.234375 -2.703125 C 5.953125 -1.878906 6.914062 -1.46875 8.125 -1.46875 Z M 8.125 -1.46875 "/></g></g><g style="fill:#ffffff;fill-opacity:1;"><g transform="translate(304.457857, 254.403182)"><path style="stroke:none" d="M 6.65625 5.484375 C 4.613281 5.484375 3.125 5.140625 2.1875 4.453125 C 1.25 3.773438 0.78125 2.875 0.78125 1.75 C 0.78125 1.03125 1 0.453125 1.4375 0.015625 C 1.875 -0.410156 2.507812 -0.71875 3.34375 -0.90625 L 3.34375 -1.140625 C 2.945312 -1.367188 2.648438 -1.632812 2.453125 -1.9375 C 2.253906 -2.25 2.15625 -2.613281 2.15625 -3.03125 C 2.15625 -3.53125 2.3125 -3.9375 2.625 -4.25 C 2.945312 -4.5625 3.421875 -4.800781 4.046875 -4.96875 L 4.046875 -5.21875 C 2.640625 -5.957031 1.9375 -7.160156 1.9375 -8.828125 C 1.9375 -9.671875 2.125 -10.421875 2.5 -11.078125 C 2.882812 -11.734375 3.429688 -12.242188 4.140625 -12.609375 C 4.859375 -12.972656 5.6875 -13.15625 6.625 -13.15625 C 7.707031 -13.15625 8.613281 -12.921875 9.34375 -12.453125 C 9.613281 -12.753906 9.816406 -13.078125 9.953125 -13.421875 C 10.097656 -13.773438 10.1875 -14.171875 10.21875 -14.609375 L 10.46875 -14.75 L 12.03125 -14.375 C 11.957031 -13.71875 11.757812 -13.160156 11.4375 -12.703125 C 11.125 -12.253906 10.679688 -11.882812 10.109375 -11.59375 L 10.109375 -11.34375 C 10.523438 -11.019531 10.832031 -10.632812 11.03125 -10.1875 C 11.226562 -9.75 11.328125 -9.238281 11.328125 -8.65625 C 11.328125 -7.84375 11.128906 -7.113281 10.734375 -6.46875 C 10.347656 -5.820312 9.796875 -5.3125 9.078125 -4.9375 C 8.367188 -4.5625 7.550781 -4.375 6.625 -4.375 C 6.519531 -4.375 6.328125 -4.382812 6.046875 -4.40625 C 5.734375 -4.414062 5.503906 -4.421875 5.359375 -4.421875 C 4.953125 -4.421875 4.625 -4.316406 4.375 -4.109375 C 4.132812 -3.898438 4.015625 -3.628906 4.015625 -3.296875 C 4.015625 -2.890625 4.144531 -2.59375 4.40625 -2.40625 C 4.664062 -2.21875 5.097656 -2.109375 5.703125 -2.078125 L 8.765625 -1.984375 C 10.078125 -1.929688 11.050781 -1.617188 11.6875 -1.046875 C 12.320312 -0.484375 12.640625 0.3125 12.640625 1.34375 C 12.640625 2.113281 12.429688 2.8125 12.015625 3.4375 C 11.609375 4.0625 10.957031 4.554688 10.0625 4.921875 C 9.164062 5.296875 8.03125 5.484375 6.65625 5.484375 Z M 6.625 -6.015625 C 7.539062 -6.015625 8.25 -6.253906 8.75 -6.734375 C 9.25 -7.210938 9.5 -7.878906 9.5 -8.734375 C 9.5 -9.628906 9.25 -10.316406 8.75 -10.796875 C 8.257812 -11.285156 7.550781 -11.53125 6.625 -11.53125 C 5.707031 -11.53125 5.003906 -11.285156 4.515625 -10.796875 C 4.035156 -10.316406 3.796875 -9.628906 3.796875 -8.734375 C 3.796875 -7.867188 4.035156 -7.195312 4.515625 -6.71875 C 5.003906 -6.25 5.707031 -6.015625 6.625 -6.015625 Z M 6.65625 3.84375 C 7.601562 3.84375 8.378906 3.734375 8.984375 3.515625 C 9.585938 3.304688 10.019531 3.03125 10.28125 2.6875 C 10.550781 2.34375 10.6875 1.953125 10.6875 1.515625 C 10.6875 1.140625 10.613281 0.832031 10.46875 0.59375 C 10.332031 0.363281 10.101562 0.1875 9.78125 0.0625 C 9.457031 -0.0507812 9.019531 -0.125 8.46875 -0.15625 L 5.578125 -0.296875 L 5.171875 -0.296875 C 3.546875 -0.265625 2.734375 0.363281 2.734375 1.59375 C 2.734375 3.09375 4.039062 3.84375 6.65625 3.84375 Z M 6.65625 3.84375 "/></g><g transform="translate(317.69467, 254.403182)"><path style="stroke:none" d="M 2.25 0 L 2.25 -18.109375 L 4.15625 -18.109375 L 4.15625 -7.53125 L 4.46875 -7.53125 L 9.28125 -12.921875 L 11.28125 -12.921875 L 11.28125 -12.640625 L 6.15625 -6.84375 L 11.765625 -0.296875 L 11.765625 0 L 9.640625 0 L 4.46875 -5.96875 L 4.15625 -5.96875 L 4.15625 0 Z M 2.25 0 "/></g><g transform="translate(329.713227, 254.403182)"><path style="stroke:none" d="M 8.578125 0.25 C 7.617188 0.25 6.785156 0.0664062 6.078125 -0.296875 C 5.378906 -0.671875 4.820312 -1.164062 4.40625 -1.78125 L 4.15625 -1.734375 L 4.15625 0 L 2.25 0 L 2.25 -18.109375 L 4.15625 -18.109375 L 4.15625 -10.984375 L 4.40625 -10.9375 C 5.382812 -12.414062 6.8125 -13.15625 8.6875 -13.15625 C 9.75 -13.15625 10.675781 -12.910156 11.46875 -12.421875 C 12.269531 -11.929688 12.890625 -11.179688 13.328125 -10.171875 C 13.773438 -9.171875 14 -7.929688 14 -6.453125 C 14 -4.984375 13.765625 -3.742188 13.296875 -2.734375 C 12.828125 -1.734375 12.1875 -0.984375 11.375 -0.484375 C 10.570312 0.00390625 9.640625 0.25 8.578125 0.25 Z M 8.125 -1.46875 C 10.707031 -1.46875 12 -3.128906 12 -6.453125 C 12 -8.179688 11.660156 -9.445312 10.984375 -10.25 C 10.316406 -11.050781 9.363281 -11.453125 8.125 -11.453125 C 6.914062 -11.453125 5.953125 -11.039062 5.234375 -10.21875 C 4.515625 -9.394531 4.15625 -8.140625 4.15625 -6.453125 C 4.15625 -4.773438 4.515625 -3.523438 5.234375 -2.703125 C 5.953125 -1.878906 6.914062 -1.46875 8.125 -1.46875 Z M 8.125 -1.46875 "/></g><g transform="translate(345.128842, 254.403182)"><path style="stroke:none" d="M 5.890625 0.25 C 5.078125 0.25 4.320312 0.144531 3.625 -0.0625 C 2.9375 -0.28125 2.351562 -0.578125 1.875 -0.953125 C 1.40625 -1.328125 1.070312 -1.75 0.875 -2.21875 L 2 -3.390625 L 2.25 -3.390625 C 2.664062 -2.753906 3.171875 -2.273438 3.765625 -1.953125 C 4.359375 -1.628906 5.066406 -1.46875 5.890625 -1.46875 C 6.835938 -1.46875 7.5625 -1.648438 8.0625 -2.015625 C 8.5625 -2.390625 8.8125 -2.910156 8.8125 -3.578125 C 8.8125 -4.078125 8.660156 -4.492188 8.359375 -4.828125 C 8.054688 -5.160156 7.566406 -5.410156 6.890625 -5.578125 L 4.71875 -6.109375 C 3.550781 -6.390625 2.703125 -6.832031 2.171875 -7.4375 C 1.640625 -8.050781 1.375 -8.804688 1.375 -9.703125 C 1.375 -10.410156 1.550781 -11.019531 1.90625 -11.53125 C 2.269531 -12.050781 2.785156 -12.453125 3.453125 -12.734375 C 4.128906 -13.015625 4.9375 -13.15625 5.875 -13.15625 C 7.050781 -13.15625 7.984375 -12.988281 8.671875 -12.65625 C 9.359375 -12.332031 9.890625 -11.875 10.265625 -11.28125 L 9.1875 -10.21875 L 8.953125 -10.21875 C 8.546875 -10.695312 8.097656 -11.039062 7.609375 -11.25 C 7.117188 -11.46875 6.539062 -11.578125 5.875 -11.578125 C 5.019531 -11.578125 4.363281 -11.421875 3.90625 -11.109375 C 3.457031 -10.804688 3.234375 -10.367188 3.234375 -9.796875 C 3.234375 -9.265625 3.390625 -8.835938 3.703125 -8.515625 C 4.023438 -8.203125 4.585938 -7.945312 5.390625 -7.75 L 7.53125 -7.234375 C 8.65625 -6.972656 9.46875 -6.53125 9.96875 -5.90625 C 10.46875 -5.289062 10.71875 -4.519531 10.71875 -3.59375 C 10.71875 -2.832031 10.535156 -2.160156 10.171875 -1.578125 C 9.816406 -1.003906 9.273438 -0.554688 8.546875 -0.234375 C 7.816406 0.0859375 6.929688 0.25 5.890625 0.25 Z M 5.890625 0.25 "/></g><g transform="translate(357.077116, 254.403182)"><path style="stroke:none" d="M 6.65625 5.484375 C 4.613281 5.484375 3.125 5.140625 2.1875 4.453125 C 1.25 3.773438 0.78125 2.875 0.78125 1.75 C 0.78125 1.03125 1 0.453125 1.4375 0.015625 C 1.875 -0.410156 2.507812 -0.71875 3.34375 -0.90625 L 3.34375 -1.140625 C 2.945312 -1.367188 2.648438 -1.632812 2.453125 -1.9375 C 2.253906 -2.25 2.15625 -2.613281 2.15625 -3.03125 C 2.15625 -3.53125 2.3125 -3.9375 2.625 -4.25 C 2.945312 -4.5625 3.421875 -4.800781 4.046875 -4.96875 L 4.046875 -5.21875 C 2.640625 -5.957031 1.9375 -7.160156 1.9375 -8.828125 C 1.9375 -9.671875 2.125 -10.421875 2.5 -11.078125 C 2.882812 -11.734375 3.429688 -12.242188 4.140625 -12.609375 C 4.859375 -12.972656 5.6875 -13.15625 6.625 -13.15625 C 7.707031 -13.15625 8.613281 -12.921875 9.34375 -12.453125 C 9.613281 -12.753906 9.816406 -13.078125 9.953125 -13.421875 C 10.097656 -13.773438 10.1875 -14.171875 10.21875 -14.609375 L 10.46875 -14.75 L 12.03125 -14.375 C 11.957031 -13.71875 11.757812 -13.160156 11.4375 -12.703125 C 11.125 -12.253906 10.679688 -11.882812 10.109375 -11.59375 L 10.109375 -11.34375 C 10.523438 -11.019531 10.832031 -10.632812 11.03125 -10.1875 C 11.226562 -9.75 11.328125 -9.238281 11.328125 -8.65625 C 11.328125 -7.84375 11.128906 -7.113281 10.734375 -6.46875 C 10.347656 -5.820312 9.796875 -5.3125 9.078125 -4.9375 C 8.367188 -4.5625 7.550781 -4.375 6.625 -4.375 C 6.519531 -4.375 6.328125 -4.382812 6.046875 -4.40625 C 5.734375 -4.414062 5.503906 -4.421875 5.359375 -4.421875 C 4.953125 -4.421875 4.625 -4.316406 4.375 -4.109375 C 4.132812 -3.898438 4.015625 -3.628906 4.015625 -3.296875 C 4.015625 -2.890625 4.144531 -2.59375 4.40625 -2.40625 C 4.664062 -2.21875 5.097656 -2.109375 5.703125 -2.078125 L 8.765625 -1.984375 C 10.078125 -1.929688 11.050781 -1.617188 11.6875 -1.046875 C 12.320312 -0.484375 12.640625 0.3125 12.640625 1.34375 C 12.640625 2.113281 12.429688 2.8125 12.015625 3.4375 C 11.609375 4.0625 10.957031 4.554688 10.0625 4.921875 C 9.164062 5.296875 8.03125 5.484375 6.65625 5.484375 Z M 6.625 -6.015625 C 7.539062 -6.015625 8.25 -6.253906 8.75 -6.734375 C 9.25 -7.210938 9.5 -7.878906 9.5 -8.734375 C 9.5 -9.628906 9.25 -10.316406 8.75 -10.796875 C 8.257812 -11.285156 7.550781 -11.53125 6.625 -11.53125 C 5.707031 -11.53125 5.003906 -11.285156 4.515625 -10.796875 C 4.035156 -10.316406 3.796875 -9.628906 3.796875 -8.734375 C 3.796875 -7.867188 4.035156 -7.195312 4.515625 -6.71875 C 5.003906 -6.25 5.707031 -6.015625 6.625 -6.015625 Z M 6.65625 3.84375 C 7.601562 3.84375 8.378906 3.734375 8.984375 3.515625 C 9.585938 3.304688 10.019531 3.03125 10.28125 2.6875 C 10.550781 2.34375 10.6875 1.953125 10.6875 1.515625 C 10.6875 1.140625 10.613281 0.832031 10.46875 0.59375 C 10.332031 0.363281 10.101562 0.1875 9.78125 0.0625 C 9.457031 -0.0507812 9.019531 -0.125 8.46875 -0.15625 L 5.578125 -0.296875 L 5.171875 -0.296875 C 3.546875 -0.265625 2.734375 0.363281 2.734375 1.59375 C 2.734375 3.09375 4.039062 3.84375 6.65625 3.84375 Z M 6.65625 3.84375 "/></g><g transform="translate(370.313929, 254.403182)"><path style="stroke:none" d="M 2.25 0 L 2.25 -18.109375 L 4.15625 -18.109375 L 4.15625 -7.53125 L 4.46875 -7.53125 L 9.28125 -12.921875 L 11.28125 -12.921875 L 11.28125 -12.640625 L 6.15625 -6.84375 L 11.765625 -0.296875 L 11.765625 0 L 9.640625 0 L 4.46875 -5.96875 L 4.15625 -5.96875 L 4.15625 0 Z M 2.25 0 "/></g><g transform="translate(382.332486, 254.403182)"><path style="stroke:none" d="M 8.578125 0.25 C 7.617188 0.25 6.785156 0.0664062 6.078125 -0.296875 C 5.378906 -0.671875 4.820312 -1.164062 4.40625 -1.78125 L 4.15625 -1.734375 L 4.15625 0 L 2.25 0 L 2.25 -18.109375 L 4.15625 -18.109375 L 4.15625 -10.984375 L 4.40625 -10.9375 C 5.382812 -12.414062 6.8125 -13.15625 8.6875 -13.15625 C 9.75 -13.15625 10.675781 -12.910156 11.46875 -12.421875 C 12.269531 -11.929688 12.890625 -11.179688 13.328125 -10.171875 C 13.773438 -9.171875 14 -7.929688 14 -6.453125 C 14 -4.984375 13.765625 -3.742188 13.296875 -2.734375 C 12.828125 -1.734375 12.1875 -0.984375 11.375 -0.484375 C 10.570312 0.00390625 9.640625 0.25 8.578125 0.25 Z M 8.125 -1.46875 C 10.707031 -1.46875 12 -3.128906 12 -6.453125 C 12 -8.179688 11.660156 -9.445312 10.984375 -10.25 C 10.316406 -11.050781 9.363281 -11.453125 8.125 -11.453125 C 6.914062 -11.453125 5.953125 -11.039062 5.234375 -10.21875 C 4.515625 -9.394531 4.15625 -8.140625 4.15625 -6.453125 C 4.15625 -4.773438 4.515625 -3.523438 5.234375 -2.703125 C 5.953125 -1.878906 6.914062 -1.46875 8.125 -1.46875 Z M 8.125 -1.46875 "/></g></g></g></svg>